<mxfile host="65bd71144e">
    <diagram id="lTeTE6zmHuBSWw06rpnl" name="Strona-1">
        <mxGraphModel dx="1228" dy="712" grid="1" gridSize="10" guides="1" tooltips="1" connect="1" arrows="1" fold="1" page="1" pageScale="1" pageWidth="827" pageHeight="1169" math="0" shadow="0">
            <root>
                <mxCell id="0"/>
                <mxCell id="1" parent="0"/>
                <mxCell id="3ep2QictzxsKPGeKMxWA-16" value="" style="swimlane;startSize=0;fontFamily=Georgia;fontSize=12;" parent="1" vertex="1">
                    <mxGeometry x="133" y="50" width="561" height="330" as="geometry"/>
                </mxCell>
                <mxCell id="3ep2QictzxsKPGeKMxWA-32" value="highbandCompressor&lt;br style=&quot;font-size: 12px;&quot;&gt;.compress(d2)" style="whiteSpace=wrap;html=1;fontFamily=Georgia;fontSize=12;" parent="3ep2QictzxsKPGeKMxWA-16" vertex="1">
                    <mxGeometry x="387" y="70" width="150" height="60" as="geometry"/>
                </mxCell>
                <mxCell id="3ep2QictzxsKPGeKMxWA-35" value="lowbandCompressor&lt;br style=&quot;font-size: 12px;&quot;&gt;.compress(d1)" style="whiteSpace=wrap;html=1;fontFamily=Georgia;fontSize=12;" parent="3ep2QictzxsKPGeKMxWA-16" vertex="1">
                    <mxGeometry x="387" y="200" width="150" height="60" as="geometry"/>
                </mxCell>
                <mxCell id="3ep2QictzxsKPGeKMxWA-31" value="divider.divide(e)" style="whiteSpace=wrap;html=1;fontFamily=Georgia;fontSize=12;" parent="3ep2QictzxsKPGeKMxWA-16" vertex="1">
                    <mxGeometry x="197" y="140" width="120" height="60" as="geometry"/>
                </mxCell>
                <mxCell id="3ep2QictzxsKPGeKMxWA-33" value="" style="edgeStyle=orthogonalEdgeStyle;rounded=0;orthogonalLoop=1;jettySize=auto;html=1;endArrow=blockThin;endFill=1;entryX=0;entryY=0.5;entryDx=0;entryDy=0;exitX=1;exitY=0.25;exitDx=0;exitDy=0;fontFamily=Georgia;fontSize=12;" parent="3ep2QictzxsKPGeKMxWA-16" source="3ep2QictzxsKPGeKMxWA-31" target="3ep2QictzxsKPGeKMxWA-32" edge="1">
                    <mxGeometry relative="1" as="geometry">
                        <Array as="points">
                            <mxPoint x="341" y="155"/>
                            <mxPoint x="341" y="100"/>
                        </Array>
                    </mxGeometry>
                </mxCell>
                <mxCell id="11" value="d2" style="edgeLabel;html=1;align=center;verticalAlign=middle;resizable=0;points=[];fontSize=12;fontFamily=Georgia;" vertex="1" connectable="0" parent="3ep2QictzxsKPGeKMxWA-33">
                    <mxGeometry x="0.4767" y="2" relative="1" as="geometry">
                        <mxPoint x="2" y="-8" as="offset"/>
                    </mxGeometry>
                </mxCell>
                <mxCell id="3ep2QictzxsKPGeKMxWA-36" value="" style="edgeStyle=orthogonalEdgeStyle;rounded=0;orthogonalLoop=1;jettySize=auto;html=1;endArrow=blockThin;endFill=1;exitX=1;exitY=0.75;exitDx=0;exitDy=0;fontFamily=Georgia;fontSize=12;" parent="3ep2QictzxsKPGeKMxWA-16" source="3ep2QictzxsKPGeKMxWA-31" target="3ep2QictzxsKPGeKMxWA-35" edge="1">
                    <mxGeometry relative="1" as="geometry">
                        <Array as="points">
                            <mxPoint x="340" y="185"/>
                            <mxPoint x="340" y="240"/>
                        </Array>
                    </mxGeometry>
                </mxCell>
                <mxCell id="12" value="d1" style="edgeLabel;html=1;align=center;verticalAlign=middle;resizable=0;points=[];fontSize=12;fontFamily=Georgia;" vertex="1" connectable="0" parent="3ep2QictzxsKPGeKMxWA-36">
                    <mxGeometry x="0.513" y="-1" relative="1" as="geometry">
                        <mxPoint y="-11" as="offset"/>
                    </mxGeometry>
                </mxCell>
                <mxCell id="3" value="" style="edgeStyle=none;html=1;fontFamily=Georgia;fontSize=12;" edge="1" parent="3ep2QictzxsKPGeKMxWA-16" source="2" target="3ep2QictzxsKPGeKMxWA-31">
                    <mxGeometry relative="1" as="geometry"/>
                </mxCell>
                <mxCell id="10" value="e" style="edgeLabel;html=1;align=center;verticalAlign=middle;resizable=0;points=[];fontSize=12;fontFamily=Georgia;" vertex="1" connectable="0" parent="3">
                    <mxGeometry x="0.2747" y="1" relative="1" as="geometry">
                        <mxPoint x="-6" y="-9" as="offset"/>
                    </mxGeometry>
                </mxCell>
                <mxCell id="2" value="enhancer.enhance(x)" style="whiteSpace=wrap;html=1;fontFamily=Georgia;fontSize=12;" vertex="1" parent="3ep2QictzxsKPGeKMxWA-16">
                    <mxGeometry x="27" y="140" width="131" height="60" as="geometry"/>
                </mxCell>
                <mxCell id="4" value="DividingCompressor.compress(x)" style="text;html=1;align=center;verticalAlign=middle;resizable=0;points=[];autosize=1;strokeColor=none;fillColor=none;fontFamily=Georgia;fontSize=12;" vertex="1" parent="3ep2QictzxsKPGeKMxWA-16">
                    <mxGeometry x="31" y="30" width="190" height="20" as="geometry"/>
                </mxCell>
                <mxCell id="6" value="" style="endArrow=classic;html=1;fontFamily=Georgia;fontSize=12;" edge="1" parent="1" target="2">
                    <mxGeometry width="50" height="50" relative="1" as="geometry">
                        <mxPoint x="40" y="220" as="sourcePoint"/>
                        <mxPoint x="90" y="160" as="targetPoint"/>
                    </mxGeometry>
                </mxCell>
                <mxCell id="9" value="x" style="edgeLabel;html=1;align=center;verticalAlign=middle;resizable=0;points=[];fontSize=12;fontFamily=Georgia;" vertex="1" connectable="0" parent="6">
                    <mxGeometry x="-0.4167" y="-4" relative="1" as="geometry">
                        <mxPoint x="5" y="-14" as="offset"/>
                    </mxGeometry>
                </mxCell>
                <mxCell id="7" value="" style="endArrow=classic;html=1;fontFamily=Georgia;fontSize=12;exitX=1;exitY=0.5;exitDx=0;exitDy=0;" edge="1" parent="1" source="3ep2QictzxsKPGeKMxWA-32">
                    <mxGeometry width="50" height="50" relative="1" as="geometry">
                        <mxPoint x="710" y="200" as="sourcePoint"/>
                        <mxPoint x="780" y="150" as="targetPoint"/>
                    </mxGeometry>
                </mxCell>
                <mxCell id="13" value="v2" style="edgeLabel;html=1;align=center;verticalAlign=middle;resizable=0;points=[];fontSize=12;fontFamily=Georgia;" vertex="1" connectable="0" parent="7">
                    <mxGeometry x="0.3325" relative="1" as="geometry">
                        <mxPoint y="-10" as="offset"/>
                    </mxGeometry>
                </mxCell>
                <mxCell id="8" value="" style="endArrow=classic;html=1;fontFamily=Georgia;fontSize=12;exitX=1;exitY=0.5;exitDx=0;exitDy=0;" edge="1" parent="1" source="3ep2QictzxsKPGeKMxWA-35">
                    <mxGeometry width="50" height="50" relative="1" as="geometry">
                        <mxPoint x="710" y="330" as="sourcePoint"/>
                        <mxPoint x="780" y="280" as="targetPoint"/>
                    </mxGeometry>
                </mxCell>
                <mxCell id="14" value="v1" style="edgeLabel;html=1;align=center;verticalAlign=middle;resizable=0;points=[];fontSize=12;fontFamily=Georgia;" vertex="1" connectable="0" parent="8">
                    <mxGeometry x="0.3636" relative="1" as="geometry">
                        <mxPoint y="-10" as="offset"/>
                    </mxGeometry>
                </mxCell>
                <mxCell id="15" value="" style="swimlane;startSize=0;fontFamily=Georgia;fontSize=12;" vertex="1" parent="1">
                    <mxGeometry x="133" y="450" width="561" height="330" as="geometry"/>
                </mxCell>
                <mxCell id="36" value="" style="edgeStyle=none;html=1;fontFamily=Georgia;fontSize=12;endArrow=blockThin;endFill=1;rounded=0;entryX=0;entryY=0.25;entryDx=0;entryDy=0;" edge="1" parent="15" source="16" target="18">
                    <mxGeometry relative="1" as="geometry">
                        <Array as="points">
                            <mxPoint x="197" y="104"/>
                            <mxPoint x="197" y="155"/>
                        </Array>
                    </mxGeometry>
                </mxCell>
                <mxCell id="43" value="d2'" style="edgeLabel;html=1;align=center;verticalAlign=middle;resizable=0;points=[];fontSize=12;fontFamily=Georgia;" vertex="1" connectable="0" parent="36">
                    <mxGeometry x="-0.0578" y="-1" relative="1" as="geometry">
                        <mxPoint x="10" y="-1" as="offset"/>
                    </mxGeometry>
                </mxCell>
                <mxCell id="16" value="highbandCompressor&lt;br style=&quot;font-size: 12px&quot;&gt;.decompress(y2)" style="whiteSpace=wrap;html=1;fontFamily=Georgia;fontSize=12;" vertex="1" parent="15">
                    <mxGeometry x="37" y="75" width="150" height="60" as="geometry"/>
                </mxCell>
                <mxCell id="37" value="" style="edgeStyle=none;html=1;fontFamily=Georgia;fontSize=12;endArrow=blockThin;endFill=1;rounded=0;entryX=0;entryY=0.75;entryDx=0;entryDy=0;" edge="1" parent="15" source="17" target="18">
                    <mxGeometry relative="1" as="geometry">
                        <Array as="points">
                            <mxPoint x="197" y="230"/>
                            <mxPoint x="197" y="185"/>
                        </Array>
                    </mxGeometry>
                </mxCell>
                <mxCell id="44" value="d1'" style="edgeLabel;html=1;align=center;verticalAlign=middle;resizable=0;points=[];fontSize=12;fontFamily=Georgia;" vertex="1" connectable="0" parent="37">
                    <mxGeometry x="-0.0625" relative="1" as="geometry">
                        <mxPoint x="9" y="4" as="offset"/>
                    </mxGeometry>
                </mxCell>
                <mxCell id="17" value="lowbandCompressor&lt;br style=&quot;font-size: 12px&quot;&gt;.decompress(y1)" style="whiteSpace=wrap;html=1;fontFamily=Georgia;fontSize=12;" vertex="1" parent="15">
                    <mxGeometry x="37" y="200" width="150" height="60" as="geometry"/>
                </mxCell>
                <mxCell id="38" value="" style="edgeStyle=none;html=1;fontFamily=Georgia;fontSize=12;endArrow=blockThin;endFill=1;" edge="1" parent="15" source="18" target="25">
                    <mxGeometry relative="1" as="geometry"/>
                </mxCell>
                <mxCell id="45" value="e'" style="edgeLabel;html=1;align=center;verticalAlign=middle;resizable=0;points=[];fontSize=12;fontFamily=Georgia;" vertex="1" connectable="0" parent="38">
                    <mxGeometry x="-0.4097" relative="1" as="geometry">
                        <mxPoint x="1" y="-10" as="offset"/>
                    </mxGeometry>
                </mxCell>
                <mxCell id="18" value="divider.merge(d1', d2')" style="whiteSpace=wrap;html=1;fontFamily=Georgia;fontSize=12;" vertex="1" parent="15">
                    <mxGeometry x="220" y="140" width="147" height="60" as="geometry"/>
                </mxCell>
                <mxCell id="25" value="enhancer.unenhance(x)" style="whiteSpace=wrap;html=1;fontFamily=Georgia;fontSize=12;" vertex="1" parent="15">
                    <mxGeometry x="397" y="140" width="143" height="60" as="geometry"/>
                </mxCell>
                <mxCell id="26" value="DividingCompressor.decompress(y1, y2)" style="text;html=1;align=center;verticalAlign=middle;resizable=0;points=[];autosize=1;strokeColor=none;fillColor=none;fontFamily=Georgia;fontSize=12;" vertex="1" parent="15">
                    <mxGeometry x="11" y="30" width="230" height="20" as="geometry"/>
                </mxCell>
                <mxCell id="34" value="" style="endArrow=classic;html=1;fontFamily=Georgia;fontSize=12;entryX=0;entryY=0.5;entryDx=0;entryDy=0;" edge="1" parent="1" target="16">
                    <mxGeometry width="50" height="50" relative="1" as="geometry">
                        <mxPoint x="40" y="554" as="sourcePoint"/>
                        <mxPoint x="80" y="530" as="targetPoint"/>
                    </mxGeometry>
                </mxCell>
                <mxCell id="41" value="v2" style="edgeLabel;html=1;align=center;verticalAlign=middle;resizable=0;points=[];fontSize=12;fontFamily=Georgia;" vertex="1" connectable="0" parent="34">
                    <mxGeometry x="-0.2692" y="-1" relative="1" as="geometry">
                        <mxPoint x="3" y="-15" as="offset"/>
                    </mxGeometry>
                </mxCell>
                <mxCell id="35" value="" style="endArrow=classic;html=1;fontFamily=Georgia;fontSize=12;entryX=0;entryY=0.5;entryDx=0;entryDy=0;" edge="1" parent="1" target="17">
                    <mxGeometry width="50" height="50" relative="1" as="geometry">
                        <mxPoint x="40" y="680" as="sourcePoint"/>
                        <mxPoint x="100" y="640" as="targetPoint"/>
                    </mxGeometry>
                </mxCell>
                <mxCell id="42" value="v1" style="edgeLabel;html=1;align=center;verticalAlign=middle;resizable=0;points=[];fontSize=12;fontFamily=Georgia;" vertex="1" connectable="0" parent="35">
                    <mxGeometry x="-0.2538" y="-1" relative="1" as="geometry">
                        <mxPoint x="1" y="-11" as="offset"/>
                    </mxGeometry>
                </mxCell>
                <mxCell id="40" value="" style="endArrow=classic;html=1;rounded=0;fontFamily=Georgia;fontSize=12;exitX=1;exitY=0.5;exitDx=0;exitDy=0;" edge="1" parent="1" source="25">
                    <mxGeometry width="50" height="50" relative="1" as="geometry">
                        <mxPoint x="730" y="640" as="sourcePoint"/>
                        <mxPoint x="780" y="620" as="targetPoint"/>
                    </mxGeometry>
                </mxCell>
                <mxCell id="46" value="y" style="edgeLabel;html=1;align=center;verticalAlign=middle;resizable=0;points=[];fontSize=12;fontFamily=Georgia;" vertex="1" connectable="0" parent="40">
                    <mxGeometry x="0.2739" y="1" relative="1" as="geometry">
                        <mxPoint y="-9" as="offset"/>
                    </mxGeometry>
                </mxCell>
            </root>
        </mxGraphModel>
    </diagram>
</mxfile>